<svg xmlns="http://www.w3.org/2000/svg" id="Layer_1" data-name="Layer 1" viewBox="0 0 2205.26 575.69"><defs><style>.cls-2{fill:#282828}</style></defs><path d="M1437.97 338.02c-11.28 1.84-19.32 4.98-24.06 9.39-4.74 4.44-7.09 10.63-7.09 18.56 0 10.09 3.49 18.35 10.53 24.76s16.8 9.63 29.33 9.63c10.09 0 19.02-2.35 26.82-7.12 7.79-4.71 13.99-11.23 18.56-19.48 4.6-8.25 6.87-17.7 6.87-28.41v-10.09h-15.59c-18.94 0-34.07.92-45.38 2.76Zm228.75-268.74h-319.24c-23.95 0-43.35 19.4-43.35 43.35v319.24c0 23.95 19.4 43.32 43.35 43.32h319.24c23.92 0 43.32-19.38 43.32-43.32V112.63c0-23.95-19.4-43.35-43.32-43.35M1553.5 409.51c0 9.5-2.3 16.75-6.87 21.78-4.6 5.06-11.15 7.58-19.73 7.58s-15.18-2.52-19.92-7.58c-4.74-5.03-7.12-12.29-7.12-21.78v-9.88c-2.27 5.71-5.2 10.96-8.93 15.61-6.28 7.79-14.15 13.85-23.62 18.1-9.47 4.3-20.32 6.44-32.53 6.44-16.21 0-30.66-3.14-43.32-9.42-12.69-6.25-22.62-14.72-29.79-25.44-7.17-10.69-10.77-22.76-10.77-36.21 0-16.51 4.28-29.55 12.83-39.18s22.46-16.59 41.73-20.86c19.24-4.28 45.06-6.41 77.45-6.41h16.05v-9.63c0-15.26-3.35-26.28-10.07-32.99-6.74-6.74-18.05-10.09-33.93-10.09-8.88 0-18.4 1.08-28.63 3.19-10.26 2.16-21.03 5.82-32.34 11.01-5.79 2.76-10.93 3.52-15.34 2.3-4.44-1.22-7.87-3.73-10.31-7.58-2.46-3.82-3.68-8.01-3.68-12.61s1.22-9.07 3.68-13.5c2.44-4.44 6.55-7.71 12.37-9.85 14.04-5.82 27.57-9.93 40.56-12.39 12.99-2.44 24.81-3.65 35.53-3.65 22 0 40.1 3.36 54.31 10.07 14.21 6.74 24.81 16.91 31.85 30.5 7.04 13.58 10.55 31.09 10.55 52.47v110Zm96.55-2.27c0 9.77-2.44 17.43-7.33 22.92-4.87 5.49-12.07 8.25-21.54 8.25s-16.18-2.76-21.08-8.25-7.33-13.15-7.33-22.92V239c0-10.07 2.44-17.78 7.33-23.14 4.9-5.33 11.93-8.01 21.08-8.01s16.29 2.68 21.32 8.01c5.03 5.36 7.55 13.07 7.55 23.14zm-3.65-250.04c-5.82 5.36-14.21 8.01-25.22 8.01s-19.02-2.65-24.98-8.01c-5.95-5.36-8.93-12.75-8.93-22.22s2.98-17.29 8.93-22.46c5.95-5.2 14.29-7.82 24.98-7.82s19.4 2.62 25.22 7.82c5.79 5.17 8.71 12.66 8.71 22.46s-2.92 16.86-8.71 22.22" class="cls-2"/><path d="M642.48 447.3c-.38-.64-.8-1.25-1.2-1.87.09.14.19.27.28.41l.03.03c.3.49.62.95.89 1.43"/><path d="M554.76 286.45c-.13-40.2-33.13-72.98-73.32-72.84l-217.69.71 71.6-71.83c28.38-28.47 28.3-74.98-.17-103.35-28.47-28.38-74.98-28.3-103.35.17L35.38 236.38c-6.4 6.42-11.27 13.78-14.77 21.61-.33.73-.7 1.45-1.01 2.2s-.55 1.53-.83 2.29c-3.02 8.03-4.74 16.68-4.71 25.74.03 9 1.78 17.58 4.82 25.55.28.76.54 1.53.85 2.28.37.88.8 1.73 1.2 2.59.66 1.43 1.32 2.85 2.07 4.24.07.13.15.25.22.37 3.25 5.92 7.33 11.49 12.33 16.48 6.34 6.32 13.59 11.14 21.32 14.64.85.39 1.68.81 2.54 1.17.65.26 1.31.47 1.96.71 8.1 3.08 16.85 4.83 26.01 4.8l218.85-.72-73 73.24c-28.38 28.47-28.3 74.98.17 103.35 28.47 28.38 74.98 28.3 103.36-.17L533.2 339.67c10.66-10.7 17.31-23.94 19.94-37.82 1.06-4.98 1.65-10.14 1.63-15.42Z" style="fill:#7f7f7f"/><path d="M138.55 236.41c28.49 28.39 28.66 74.48.44 103.08l124.29-124.7-176.06.29c18.58.06 37.12 7.16 51.33 21.33m291.88 102.87c-28.6-28.51-28.68-74.75-.17-103.35L305.72 360.88l175.55-.29c-18.41-.18-36.77-7.29-50.84-21.31" style="fill:#565656"/><path d="M335.91 141.9c28.49-28.58 28.42-74.86-.17-103.35s-74.86-28.42-103.35.17c-28.49 28.58-28.42 74.86.17 103.35 28.58 28.49 74.86 28.42 103.35-.17M35.38 236.38c-28.49 28.59-28.42 74.86.17 103.35 28.58 28.49 74.86 28.42 103.35-.17s28.42-74.86-.17-103.35c-28.58-28.49-74.86-28.42-103.35.17m197.66 197.41c-28.49 28.58-28.42 74.86.17 103.35 28.58 28.49 74.86 28.42 103.35-.17 28.49-28.58 28.42-74.86-.17-103.35-28.58-28.49-74.86-28.42-103.35.17m314.38-178.8c-.18-.37-.38-.75-.57-1.12-.48-.92-.96-1.84-1.48-2.75-.75-1.32-1.55-2.63-2.39-3.92l-.03-.03c-.66-1-1.34-1.99-2.06-2.96 0 0-.01-.02-.03-.03-.71-.99-1.46-1.93-2.22-2.87a77 77 0 0 0-5.03-5.55 74 74 0 0 0-5.56-5.01c-.96-.77-1.9-1.52-2.89-2.23 0 0-.02-.01-.03-.03-.97-.72-1.96-1.39-2.97-2.05l-.03-.03a73 73 0 0 0-3.47-2.11c-.8-.46-1.61-.9-2.42-1.34-.26-.14-.52-.27-.78-.4a72.5 72.5 0 0 0-23.35-7.38c-.73-.1-1.47-.2-2.21-.28-.58-.06-1.15-.12-1.72-.17-1.42-.12-2.85-.21-4.3-.25-.06-.03-.14-.01-.2-.01-.61-.01-1.22-.03-1.8-.01a6 6 0 0 0-.82 0c-11 .14-21.94 2.8-31.97 7.88-.54.27-1.08.55-1.62.83a73 73 0 0 0-5.74 3.39l-.03.03c-1 .66-1.99 1.34-2.96 2.06 0 0-.02.01-.03.03-.99.71-1.93 1.46-2.87 2.22a77 77 0 0 0-5.55 5.03c-28.51 28.6-28.43 74.84.17 103.35 14.07 14.02 32.43 21.14 50.84 21.31.27.01.55.01.82 0 18.71 0 37.42-7.17 51.69-21.48 1.79-1.79 3.45-3.65 5.01-5.56.75-.94 1.5-1.89 2.21-2.88l.03-.03c.72-.97 1.39-1.96 2.05-2.97l.03-.03c.84-1.29 1.63-2.6 2.38-3.92.52-.91.99-1.83 1.47-2.76.19-.37.38-.74.56-1.11 10.07-20.4 10.03-44.49-.11-64.86Zm283.84 2.36-49.96-10.54c-17.72-3.67-30.25-8.78-37.58-15.36-7.33-6.57-11-15.35-11-26.35 0-9.78 2.67-18.26 8.02-25.44 5.34-7.18 13.06-12.76 23.15-16.73 10.08-3.97 22.15-5.96 36.21-5.96s25.97 1.38 37.59 4.13c11.61 2.74 23.07 7.33 34.38 13.75 6.42 3.66 12.15 5.2 17.19 4.59s9.24-2.59 12.6-5.96c3.36-3.36 5.5-7.4 6.42-12.14s.53-9.55-1.14-14.44c-1.69-4.89-4.97-9.01-9.85-12.38q-19.71-13.29-44.46-20.16c-16.5-4.59-33.92-6.87-52.26-6.87s-35.68 2.36-51.11 7.1c-15.44 4.74-28.73 11.53-39.88 20.4-11.15 8.86-19.79 19.4-25.9 31.62-6.11 12.23-9.17 25.83-9.17 40.79 0 23.84 7.11 43.02 21.31 57.53 14.21 14.52 35.83 24.82 64.86 30.94l50.42 10.55c18.94 3.97 32.32 9.01 40.11 15.12s11.69 14.52 11.69 25.22c0 12.82-5.5 23.3-16.5 31.39-11 8.1-28.58 12.14-52.72 12.14-16.5 0-32.24-1.83-47.21-5.5-14.98-3.66-29.18-9.46-42.63-17.42-5.81-3.66-11.15-5.04-16.04-4.12-4.89.91-8.94 3.28-12.15 7.1-3.21 3.83-5.2 8.25-5.96 13.29s-.08 10.17 2.07 15.36c2.13 5.2 5.96 9.63 11.46 13.29 9.47 6.11 20.17 11.23 32.08 15.36 11.92 4.12 24.6 7.18 38.05 9.16 13.44 1.98 26.88 2.98 40.33 2.98 19.56 0 37.13-2.29 52.72-6.87 15.58-4.59 28.95-11.15 40.1-19.71 11.15-8.55 19.71-18.8 25.67-30.71 5.96-11.92 8.94-25.22 8.94-39.88 0-22.92-7.41-41.26-22.23-55-14.83-13.76-37.36-23.84-67.61-30.26Zm260.07 132.01c-3.06.3-6.57.91-10.54 1.83s-8.56 1.38-13.75 1.38c-14.36 0-24.75-3.66-31.17-11q-9.63-10.995-9.63-33v-94.43h48.59c7.33 0 12.99-1.9 16.96-5.72s5.96-9.1 5.96-15.82-1.99-12.38-5.96-16.04-9.63-5.5-16.96-5.5h-48.59v-41.71c0-9.47-2.45-16.65-7.33-21.55-4.89-4.88-11.92-7.33-21.08-7.33s-16.28 2.45-21.32 7.33c-5.04 4.9-7.56 12.08-7.56 21.55v41.71h-23.84c-7.33 0-12.99 1.83-16.96 5.5-3.97 3.66-5.96 9.02-5.96 16.04s1.99 12 5.96 15.82c3.97 3.83 9.63 5.72 16.96 5.72h23.84v97.64q0 28.875 9.63 48.36c6.42 12.99 16.27 22.84 29.56 29.56 13.3 6.72 29.87 10.08 49.74 10.08 4.88 0 10.54-.53 16.96-1.6s11.61-2.22 15.58-3.44c5.19-1.83 8.78-5.12 10.77-9.85s2.98-10.16 2.98-16.27c0-7.95-1.22-13.21-3.66-15.82-2.45-2.59-5.5-3.74-9.17-3.44Zm173.62-178.08c-3.82-3.82-8.94-5.42-15.36-4.81-20.78 1.83-37.43 7.49-49.96 16.95-9.04 6.83-15.89 16-20.63 27.42v-14.59c0-9.46-2.45-16.65-7.33-21.54-4.89-4.89-11.77-7.34-20.63-7.34s-15.74 2.45-20.62 7.34c-4.89 4.89-7.33 12.08-7.33 21.54v173.26c0 9.47 2.52 16.74 7.56 21.78s12.3 7.57 21.77 7.57 16.65-2.53 21.55-7.57c4.88-5.04 7.33-12.3 7.33-21.78v-94.88c0-17.42 4.73-30.94 14.21-40.57q14.205-14.445 42.18-17.19l10.08-.92c8.25-.91 14.44-3.73 18.56-8.48 4.12-4.74 5.88-10.92 5.27-18.56-.62-7.95-2.83-13.82-6.65-17.65Zm692.67 1.38c-3.97-3.51-9.33-5.28-16.04-5.28-7.64 0-13.68 1.6-18.1 4.81-4.43 3.21-8.33 9.1-11.69 17.65l-56.75 137.99-55.09-137.53c-3.37-8.87-7.19-14.91-11.46-18.11-4.29-3.21-9.94-4.81-16.96-4.81-8.26 0-14.75 1.77-19.48 5.28-4.74 3.51-7.5 8.17-8.26 13.97-.76 5.81.23 12.08 2.98 18.8l72.88 169.13c3.67 8.26 8.33 14.37 13.98 18.34s12.3 5.96 19.94 5.96 14.74-1.99 20.4-5.96c5.65-3.97 10.16-10.08 13.52-18.34l74.26-169.59q4.575-10.08 3.21-18.57c-.92-5.65-3.37-10.23-7.33-13.75Zm225.55 170.74c-2.91-3.05-6.8-4.81-11.69-5.27s-10.54 1.15-16.96 4.81a97.7 97.7 0 0 1-28.19 10.31c-9.94 1.99-18.87 2.98-26.81 2.98-22.92 0-40.27-6.19-52.03-18.56-9.34-9.82-14.9-23.69-16.83-41.49h138.53c7.02 0 12.44-1.44 16.27-4.36 3.82-2.89 5.73-7.1 5.73-12.6 0-17.42-2.37-33.09-7.11-46.99s-11.62-25.74-20.62-35.52c-9.02-9.77-19.87-17.26-32.54-22.45-12.69-5.19-26.98-7.79-42.86-7.79-21.7 0-41.02 4.96-57.98 14.89s-30.26 23.61-39.88 41.02c-9.62 17.42-14.43 37.75-14.43 60.97s4.96 44.47 14.89 61.88c9.92 17.42 24.07 30.87 42.4 40.34 18.34 9.47 40.18 14.21 65.55 14.21 11.91 0 24.82-1.6 38.73-4.81 13.9-3.21 26.2-8.17 36.9-14.89 5.5-3.36 9.4-7.34 11.69-11.91q3.435-6.885 2.52-13.53c-.62-4.42-2.37-8.17-5.27-11.23Zm-125.59-129.04c9.01-5.95 19.94-8.93 32.77-8.93 11.61 0 21.32 2.52 29.11 7.57 7.79 5.04 13.75 12.3 17.88 21.77 3.43 7.86 5.34 17.4 5.93 28.42h-112.41c1.09-8.69 3.05-16.63 6.1-23.61 4.74-10.84 11.61-19.25 20.63-25.22Z" class="cls-2"/></svg>