<svg xmlns="http://www.w3.org/2000/svg" id="Layer_1" data-name="Layer 1" viewBox="0 0 647.05 614.62"><defs><style>.cls-1{fill:#ff5100}.cls-2{fill:#ed4300}</style></defs><path d="M619.94 305.78c-.15-44.09-36.34-80.05-80.43-79.91l-238.81.78 78.54-78.8c31.13-31.23 31.05-82.25-.18-113.38s-82.25-31.05-113.38.18l-215.5 216.2c-7.02 7.04-12.36 15.12-16.21 23.71-.37.81-.77 1.59-1.11 2.41-.34.83-.61 1.67-.91 2.51-3.31 8.81-5.19 18.3-5.16 28.23.03 9.87 1.96 19.29 5.28 28.03.31.84.59 1.68.93 2.5.41.97.88 1.9 1.32 2.84.72 1.57 1.44 3.13 2.27 4.65.07.14.16.27.24.41 3.56 6.49 8.04 12.6 13.53 18.08 6.95 6.93 14.91 12.22 23.39 16.06.93.43 1.84.89 2.79 1.28.71.29 1.44.52 2.15.78 8.89 3.38 18.49 5.3 28.53 5.27l240.08-.78-80.08 80.34c-31.13 31.23-31.05 82.25.18 113.38s82.25 31.05 113.38-.18l215.49-216.2c11.7-11.74 18.98-26.27 21.87-41.49 1.17-5.47 1.81-11.12 1.79-16.92Z" style="fill:#ff7933"/><path d="M163.36 250.89c31.25 31.15 31.44 81.71.48 113.08l136.34-136.79-193.13.31c20.39.07 40.72 7.85 56.31 23.4M483.55 363.74c-31.37-31.27-31.46-82-.19-113.37L346.74 387.44l192.58-.31c-20.2-.19-40.34-7.99-55.78-23.38Z" class="cls-2"/><path d="M379.86 147.21c31.26-31.36 31.17-82.12-.18-113.37-31.36-31.26-82.12-31.17-113.37.19-31.26 31.36-31.17 82.12.18 113.37 31.36 31.26 82.12 31.17 113.37-.19M50.18 250.85c-31.26 31.36-31.17 82.12.19 113.37 31.36 31.26 82.12 31.17 113.37-.18 31.26-31.36 31.17-82.12-.19-113.37-31.36-31.26-82.12-31.17-113.37.18M267.01 467.41c-31.26 31.36-31.17 82.12.19 113.37 31.36 31.26 82.12 31.17 113.37-.19 31.26-31.36 31.17-82.12-.19-113.37-31.36-31.26-82.12-31.17-113.37.19M611.89 271.27c-.2-.41-.41-.82-.63-1.22-.52-1.01-1.05-2.02-1.62-3.01-.83-1.45-1.7-2.89-2.62-4.3l-.04-.04c-.72-1.1-1.47-2.18-2.26-3.25l-.03-.03c-.78-1.09-1.6-2.12-2.43-3.15-1.72-2.1-3.55-4.13-5.52-6.09s-4-3.78-6.1-5.5c-1.05-.84-2.09-1.67-3.17-2.44l-.03-.03a65 65 0 0 0-3.26-2.25l-.03-.03c-1.25-.81-2.53-1.58-3.81-2.32-.88-.51-1.76-.99-2.65-1.46-.29-.15-.57-.29-.86-.44a79.3 79.3 0 0 0-25.62-8.09c-.8-.11-1.61-.22-2.43-.31-.63-.07-1.26-.13-1.89-.19-1.56-.13-3.13-.23-4.71-.28-.07-.03-.16-.02-.22-.02-.67-.02-1.34-.03-1.98-.01-.29-.02-.6-.02-.89 0a80.04 80.04 0 0 0-35.08 8.64c-.6.3-1.19.6-1.78.91-.73.39-1.45.78-2.17 1.2-1.39.8-2.77 1.63-4.13 2.52l-.03.03c-1.1.73-2.19 1.47-3.25 2.26l-.03.03c-1.08.78-2.12 1.6-3.15 2.43-2.1 1.72-4.13 3.55-6.09 5.52-31.27 31.37-31.19 82.1.19 113.37 15.44 15.38 35.58 23.19 55.78 23.38.29.02.6.02.9 0 20.52 0 41.05-7.87 56.7-23.56 1.96-1.97 3.78-4 5.5-6.1.82-1.03 1.65-2.07 2.42-3.16l.03-.03a65 65 0 0 0 2.25-3.26c.02-.02.03-.04.03-.04.92-1.41 1.78-2.85 2.61-4.3.57-1 1.09-2.01 1.61-3.03.21-.41.42-.81.62-1.22 11.04-22.38 11-48.81-.12-71.15Z" class="cls-1"/></svg>