<svg xmlns="http://www.w3.org/2000/svg" id="Layer_1" data-name="Layer 1" viewBox="0 0 2205.26 575.69"><defs><style>.cls-1{fill:#8e8e8e}.cls-2{fill:#fff}</style></defs><path d="M1438.79 338.14c-11.31 1.84-19.37 4.99-24.12 9.41-4.75 4.45-7.11 10.66-7.11 18.61 0 10.12 3.5 18.39 10.55 24.82s16.85 9.66 29.41 9.66c10.12 0 19.07-2.36 26.88-7.13 7.81-4.72 14.02-11.26 18.61-19.53 4.61-8.27 6.89-17.74 6.89-28.48v-10.12h-15.62c-18.99 0-34.15.92-45.49 2.77Zm229.31-269.4h-320.02c-24.01 0-43.46 19.45-43.46 43.46v320.02c0 24.01 19.45 43.43 43.46 43.43h320.02c23.98 0 43.43-19.42 43.43-43.43V112.2c0-24.01-19.45-43.46-43.43-43.46m-113.5 341.07c0 9.52-2.31 16.79-6.89 21.84-4.61 5.07-11.18 7.6-19.78 7.6s-15.22-2.52-19.96-7.6c-4.75-5.05-7.13-12.32-7.13-21.84v-9.9c-2.28 5.72-5.21 10.99-8.95 15.65-6.29 7.81-14.19 13.89-23.68 18.15-9.49 4.31-20.37 6.46-32.61 6.46-16.25 0-30.74-3.15-43.43-9.44-12.72-6.27-22.68-14.76-29.87-25.5-7.19-10.72-10.8-22.81-10.8-36.3 0-16.55 4.29-29.62 12.86-39.28s22.52-16.63 41.83-20.92c19.29-4.29 45.17-6.43 77.64-6.43h16.09v-9.66c0-15.3-3.36-26.34-10.09-33.07-6.75-6.75-18.09-10.12-34.02-10.12-8.9 0-18.45 1.08-28.7 3.2-10.28 2.17-21.08 5.83-32.42 11.04-5.8 2.77-10.96 3.53-15.38 2.31-4.45-1.22-7.89-3.74-10.33-7.6-2.47-3.83-3.69-8.03-3.69-12.64s1.22-9.09 3.69-13.54c2.44-4.45 6.56-7.73 12.4-9.87 14.08-5.83 27.64-9.96 40.66-12.42 13.02-2.44 24.88-3.66 35.62-3.66 22.06 0 40.2 3.36 54.44 10.09 14.24 6.75 24.88 16.95 31.93 30.57s10.58 31.17 10.58 52.6V409.8Zm96.79-2.28c0 9.79-2.44 17.47-7.35 22.98-4.88 5.51-12.1 8.27-21.59 8.27s-16.22-2.77-21.13-8.27c-4.91-5.51-7.35-13.18-7.35-22.98V238.88c0-10.09 2.44-17.82 7.35-23.19 4.91-5.34 11.96-8.03 21.13-8.03s16.33 2.69 21.38 8.03c5.05 5.37 7.57 13.1 7.57 23.19v168.65Zm-3.66-250.65c-5.83 5.37-14.24 8.03-25.28 8.03s-19.07-2.66-25.04-8.03-8.95-12.78-8.95-22.27 2.98-17.33 8.95-22.52c5.97-5.21 14.32-7.84 25.04-7.84s19.45 2.63 25.28 7.84c5.81 5.18 8.73 12.7 8.73 22.52s-2.93 16.9-8.73 22.27M641.35 447.69c-.38-.64-.8-1.25-1.21-1.87.09.14.19.27.28.41l.03.03c.3.49.62.95.9 1.44Z" class="cls-2"/><path d="M553.42 286.44c-.13-40.29-33.21-73.15-73.5-73.02l-218.23.71 71.77-72.01c28.45-28.54 28.37-75.16-.17-103.61s-75.16-28.37-103.61.17L32.77 236.25c-6.41 6.43-11.3 13.81-14.81 21.67-.33.74-.7 1.45-1.01 2.2-.31.76-.55 1.53-.84 2.29-3.03 8.05-4.75 16.72-4.72 25.8.03 9.02 1.79 17.63 4.83 25.61.28.76.54 1.53.85 2.29.37.88.8 1.73 1.21 2.6.66 1.43 1.32 2.86 2.07 4.25.07.13.15.25.22.37 3.26 5.93 7.35 11.52 12.36 16.52 6.35 6.33 13.63 11.17 21.37 14.67.85.39 1.68.81 2.55 1.17.65.26 1.31.47 1.97.72 8.12 3.09 16.89 4.85 26.07 4.82l219.39-.72-73.18 73.42c-28.45 28.54-28.37 75.16.17 103.61s75.16 28.37 103.61-.17L531.8 339.81c10.69-10.72 17.35-24 19.98-37.91a73 73 0 0 0 1.64-15.46" style="fill:#bcbcbc"/><path d="M136.19 236.28c28.56 28.46 28.73 74.66.44 103.33l124.59-125-176.49.29c18.63.06 37.21 7.18 51.46 21.38M428.78 339.41c-28.67-28.58-28.75-74.93-.17-103.6L303.77 361.06l175.98-.29c-18.46-.18-36.86-7.31-50.97-21.36" class="cls-1"/><path d="M334.03 141.55c28.56-28.65 28.49-75.04-.17-103.6s-75.04-28.49-103.6.17c-28.56 28.65-28.49 75.04.17 103.6 28.65 28.56 75.04 28.49 103.6-.17M32.77 236.26c-28.56 28.66-28.49 75.04.17 103.6 28.65 28.56 75.04 28.49 103.6-.17s28.49-75.04-.17-103.6c-28.65-28.56-75.04-28.49-103.6.17M230.91 434.14c-28.56 28.65-28.49 75.04.17 103.6 28.65 28.56 75.04 28.49 103.6-.17 28.56-28.65 28.49-75.04-.17-103.6-28.65-28.56-75.04-28.49-103.6.17M546.06 254.91c-.18-.38-.38-.75-.57-1.12-.48-.92-.96-1.85-1.48-2.75-.76-1.33-1.55-2.64-2.39-3.93l-.03-.03c-.66-1.01-1.34-2-2.07-2.97 0 0-.01-.02-.03-.03-.71-.99-1.47-1.93-2.22-2.88a77 77 0 0 0-5.04-5.56c-1.8-1.79-3.66-3.45-5.58-5.03-.96-.77-1.91-1.52-2.9-2.23 0 0-.02-.01-.03-.03-.98-.72-1.97-1.4-2.98-2.06l-.03-.03a83 83 0 0 0-3.48-2.12c-.8-.47-1.61-.91-2.43-1.34-.26-.14-.52-.27-.78-.4a72.9 72.9 0 0 0-23.41-7.4c-.73-.1-1.47-.2-2.22-.28-.58-.06-1.15-.12-1.73-.17-1.43-.12-2.86-.21-4.31-.25-.06-.03-.14-.01-.2-.01-.61-.01-1.23-.03-1.81-.01a6 6 0 0 0-.82 0c-11.03.14-21.99 2.81-32.05 7.9-.54.27-1.09.55-1.62.84-.66.36-1.33.72-1.98 1.1-1.27.73-2.54 1.49-3.77 2.31l-.03.03c-1.01.66-2 1.34-2.97 2.07 0 0-.02.01-.03.03-.99.71-1.93 1.47-2.88 2.22a77 77 0 0 0-5.56 5.04c-28.58 28.67-28.5 75.03.17 103.6 14.11 14.06 32.51 21.19 50.97 21.36.27.01.55.01.82 0 18.76 0 37.52-7.19 51.81-21.53 1.79-1.8 3.45-3.66 5.03-5.58.75-.95 1.51-1.89 2.21-2.88l.03-.03c.72-.98 1.4-1.97 2.06-2.98l.03-.03c.84-1.29 1.63-2.6 2.38-3.93.52-.91 1-1.84 1.48-2.77l.57-1.11c10.09-20.45 10.05-44.6-.11-65.02ZM830.59 257.27l-50.09-10.56c-17.77-3.68-30.32-8.8-37.68-15.4-7.35-6.59-11.03-15.39-11.03-26.42 0-9.8 2.68-18.3 8.04-25.51 5.36-7.19 13.09-12.79 23.21-16.77 10.11-3.98 22.21-5.98 36.3-5.98s26.04 1.38 37.68 4.14c11.64 2.75 23.13 7.35 34.46 13.78 6.43 3.67 12.18 5.22 17.24 4.6 5.05-.61 9.26-2.6 12.63-5.98 3.37-3.37 5.52-7.42 6.43-12.17.92-4.75.53-9.57-1.15-14.47-1.69-4.9-4.98-9.03-9.88-12.41-13.18-8.88-28.03-15.62-44.57-20.21-16.55-4.6-34-6.89-52.38-6.89s-35.77 2.37-51.23 7.12c-15.47 4.75-28.8 11.56-39.98 20.45-11.18 8.88-19.84 19.45-25.96 31.7-6.13 12.26-9.19 25.9-9.19 40.89 0 23.9 7.12 43.12 21.36 57.67 14.25 14.55 35.92 24.89 65.02 31.01l50.54 10.57c18.99 3.98 32.39 9.03 40.21 15.16 7.81 6.13 11.71 14.55 11.71 25.28 0 12.86-5.52 23.35-16.54 31.47-11.03 8.12-28.65 12.17-52.85 12.17-16.54 0-32.32-1.84-47.33-5.51s-29.25-9.49-42.73-17.46c-5.82-3.67-11.18-5.05-16.08-4.13-4.9.91-8.96 3.29-12.18 7.12-3.22 3.84-5.21 8.27-5.97 13.32-.77 5.05-.08 10.19 2.07 15.4 2.14 5.22 5.97 9.65 11.49 13.32 9.49 6.13 20.22 11.26 32.16 15.4 11.95 4.13 24.66 7.19 38.14 9.18a276.4 276.4 0 0 0 40.43 2.99c19.6 0 37.22-2.29 52.85-6.89 15.62-4.6 29.02-11.18 40.2-19.76 11.18-8.57 19.76-18.84 25.73-30.79s8.96-25.28 8.96-39.98c0-22.97-7.43-41.36-22.28-55.14-14.87-13.79-37.45-23.9-67.78-30.33ZM1091.3 389.61c-3.06.3-6.59.91-10.57 1.84-3.98.92-8.58 1.38-13.78 1.38-14.4 0-24.81-3.67-31.24-11.03-6.43-7.35-9.65-18.38-9.65-33.08v-94.66h48.71c7.35 0 13.02-1.9 17-5.74 3.98-3.83 5.97-9.12 5.97-15.86s-1.99-12.41-5.97-16.08-9.65-5.51-17-5.51h-48.71v-41.82c0-9.5-2.46-16.69-7.35-21.6-4.91-4.89-11.95-7.35-21.14-7.35s-16.32 2.46-21.37 7.35c-5.05 4.91-7.58 12.11-7.58 21.6v41.82h-23.9c-7.35 0-13.02 1.84-17 5.51s-5.97 9.04-5.97 16.08 1.99 12.03 5.97 15.86c3.98 3.84 9.65 5.74 17 5.74h23.9v97.88c0 19.3 3.22 35.46 9.65 48.48s16.31 22.9 29.63 29.63c13.33 6.74 29.94 10.11 49.86 10.11 4.9 0 10.57-.53 17-1.61s11.64-2.23 15.62-3.44c5.21-1.84 8.8-5.13 10.8-9.88 1.99-4.75 2.99-10.18 2.99-16.31 0-7.97-1.23-13.25-3.67-15.86-2.46-2.6-5.52-3.75-9.19-3.44ZM1265.35 211.1c-3.83-3.83-8.96-5.43-15.39-4.82-20.83 1.84-37.52 7.51-50.08 17-9.06 6.84-15.93 16.03-20.68 27.49v-14.62c0-9.49-2.46-16.69-7.35-21.59-4.91-4.9-11.8-7.36-20.68-7.36s-15.78 2.46-20.67 7.36c-4.91 4.9-7.35 12.11-7.35 21.59v173.69c0 9.5 2.53 16.78 7.58 21.83s12.33 7.59 21.83 7.59 16.69-2.53 21.6-7.59c4.9-5.05 7.35-12.33 7.35-21.83v-95.11c0-17.46 4.74-31.01 14.24-40.66 9.49-9.65 23.59-15.4 42.28-17.24l10.11-.92c8.27-.91 14.47-3.74 18.61-8.5 4.13-4.75 5.9-10.94 5.29-18.6-.62-7.97-2.84-13.86-6.67-17.69ZM1959.72 212.48c-3.98-3.52-9.35-5.29-16.08-5.29-7.66 0-13.71 1.61-18.15 4.82-4.44 3.22-8.35 9.12-11.72 17.69l-56.89 138.33-55.23-137.87c-3.37-8.89-7.2-14.94-11.49-18.16-4.3-3.22-9.96-4.82-17-4.82-8.28 0-14.78 1.77-19.53 5.29q-7.125 5.28-8.28 14.01c-.77 5.82.23 12.11 2.99 18.84l73.06 169.55q5.52 12.42 14.01 18.39c5.67 3.98 12.33 5.98 19.99 5.98s14.78-2 20.45-5.98 10.18-10.11 13.56-18.39l74.44-170c3.06-6.74 4.13-12.94 3.22-18.62-.92-5.66-3.37-10.26-7.35-13.78ZM2185.82 383.63c-2.91-3.05-6.82-4.82-11.71-5.28-4.91-.46-10.57 1.15-17 4.82a97.7 97.7 0 0 1-28.26 10.33c-9.96 2-18.92 2.99-26.88 2.99-22.98 0-40.37-6.21-52.16-18.6-9.36-9.84-14.94-23.75-16.87-41.59h138.87c7.04 0 12.48-1.45 16.31-4.37 3.83-2.9 5.74-7.12 5.74-12.63 0-17.46-2.37-33.17-7.12-47.11q-7.125-20.895-20.67-35.61c-9.04-9.79-19.92-17.3-32.62-22.51-12.72-5.21-27.04-7.81-42.97-7.81-21.75 0-41.12 4.98-58.12 14.93s-30.33 23.67-39.98 41.12c-9.64 17.46-14.47 37.84-14.47 61.12s4.97 44.58 14.93 62.03c9.95 17.46 24.12 30.95 42.5 40.44 18.38 9.5 40.28 14.25 65.71 14.25 11.94 0 24.88-1.61 38.82-4.82 13.94-3.22 26.27-8.19 36.99-14.93 5.52-3.37 9.42-7.36 11.72-11.94 2.29-4.6 3.14-9.12 2.53-13.56-.62-4.43-2.38-8.19-5.29-11.26Zm-125.9-129.35c9.03-5.97 19.98-8.95 32.85-8.95 11.64 0 21.37 2.52 29.18 7.59 7.81 5.05 13.78 12.33 17.92 21.82 3.43 7.88 5.36 17.45 5.94 28.49h-112.68c1.09-8.71 3.05-16.67 6.11-23.67 4.75-10.87 11.64-19.3 20.68-25.28" class="cls-2"/></svg>