<svg xmlns="http://www.w3.org/2000/svg" xml:space="preserve" overflow="hidden" viewBox="0 0 1654 1654"><g fill="#FF5102" fill-rule="evenodd" transform="translate(-303 -398)"><path d="M896 629a231 231 0 1 1 462 0 231 231 0 0 1-462 0Zm-593 594a231 231 0 1 1 462 0 231 231 0 0 1-462 0Zm594 597a231 231 0 1 1 462 0 231 231 0 0 1-462 0Zm597-597a230 230 0 1 1 459 0c0 128-103 231-229 231a230 230 0 0 1-230-231Z"/><path fill-opacity=".7" d="M372 1385c-90-90-90-237 0-327l591-591a231 231 0 1 1 327 327l-591 591c-90 90-237 90-327 0Zm594 599c-91-91-91-237 0-327l593-593a231 231 0 0 1 327 327l-594 593c-90 90-236 90-326 0Z"/><path fill-opacity=".7" d="M303 1223c0-128 103-231 231-231h1188a231 231 0 1 1 0 462H534a231 231 0 0 1-231-231Z"/></g></svg>
