<svg xmlns="http://www.w3.org/2000/svg" id="Layer_1" data-name="Layer 1" viewBox="0 0 647.05 614.62"><defs><style>.cls-1{fill:#8e8e8e}.cls-2{fill:#fff}</style></defs><path d="M626.05 305.74c-.15-45-37.09-81.7-82.09-81.56l-243.73.8 80.16-80.42c31.77-31.87 31.69-83.95-.19-115.72-31.87-31.77-83.95-31.69-115.72.19L44.55 249.69c-7.16 7.18-12.62 15.43-16.54 24.2-.37.82-.78 1.62-1.13 2.46s-.62 1.71-.93 2.56c-3.38 8.99-5.3 18.68-5.27 28.82.03 10.07 2 19.69 5.39 28.61.32.85.6 1.71.95 2.56.41.99.89 1.93 1.35 2.9.73 1.6 1.47 3.19 2.32 4.75.08.14.17.28.25.42 3.64 6.62 8.21 12.86 13.81 18.45 7.09 7.07 15.22 12.47 23.87 16.39.95.44 1.88.91 2.84 1.31.72.29 1.46.53 2.2.8 9.07 3.45 18.87 5.41 29.12 5.38l245.03-.8-81.73 82c-31.77 31.88-31.68 83.95.19 115.72 31.88 31.77 83.95 31.69 115.72-.19l219.93-220.65c11.94-11.98 19.38-26.81 22.32-42.34 1.19-5.58 1.85-11.35 1.83-17.27Z" style="fill:#bcbcbc"/><path d="M160.06 249.72c31.9 31.79 32.09 83.39.49 115.41L299.7 225.52l-197.11.32c20.81.07 41.56 8.02 57.47 23.88M486.84 364.9c-32.02-31.92-32.11-83.69-.19-115.71L347.22 389.08l196.55-.32c-20.61-.2-41.17-8.16-56.93-23.86" class="cls-1"/><path d="M381.02 143.92c31.9-32 31.81-83.81-.19-115.71-32.01-31.9-83.81-31.81-115.71.19s-31.81 83.81.19 115.71 83.81 31.81 115.71-.19M44.55 249.69c-31.9 32.01-31.81 83.81.19 115.71s83.81 31.82 115.71-.19 31.81-83.81-.19-115.71-83.81-31.81-115.71.19M265.85 470.71c-31.9 32-31.81 83.81.19 115.71s83.81 31.81 115.71-.19 31.81-83.81-.19-115.71-83.81-31.81-115.71.19M617.83 270.52c-.2-.42-.42-.83-.64-1.25-.54-1.03-1.07-2.06-1.66-3.08-.84-1.48-1.73-2.95-2.67-4.38l-.04-.04c-.74-1.12-1.5-2.23-2.31-3.32l-.03-.03c-.79-1.11-1.64-2.16-2.48-3.21a86 86 0 0 0-5.63-6.21c-2.01-2-4.08-3.86-6.23-5.61-1.07-.86-2.13-1.7-3.24-2.49l-.03-.03a68 68 0 0 0-3.33-2.3l-.03-.03c-1.28-.83-2.58-1.61-3.89-2.37-.89-.52-1.8-1.01-2.71-1.49l-.87-.45a81 81 0 0 0-26.15-8.26c-.82-.12-1.65-.22-2.48-.32a85.042 85.042 0 0 0-6.74-.47c-.07-.03-.16-.02-.23-.02-.68-.02-1.37-.03-2.02-.01-.3-.02-.61-.02-.91 0-12.31.16-24.56 3.14-35.8 8.82-.61.3-1.21.61-1.81.93-.74.4-1.48.8-2.21 1.22a91 91 0 0 0-4.21 2.57l-.03.03c-1.12.74-2.23 1.5-3.32 2.31l-.03.03c-1.11.79-2.16 1.64-3.21 2.48a86 86 0 0 0-6.21 5.63c-31.92 32.02-31.83 83.79.19 115.71 15.75 15.7 36.31 23.66 56.93 23.86.3.02.62.02.92 0 20.95 0 41.9-8.03 57.87-24.05 2-2.01 3.86-4.08 5.61-6.23.84-1.06 1.68-2.11 2.47-3.22l.03-.03c.81-1.09 1.56-2.2 2.3-3.32.02-.02.03-.04.03-.04.94-1.44 1.82-2.91 2.66-4.39.58-1.02 1.11-2.05 1.65-3.09.21-.42.43-.83.63-1.24 11.27-22.84 11.23-49.81-.12-72.62Z" class="cls-2"/></svg>